<svg xmlns="http://www.w3.org/2000/svg" width="512" height="512" viewBox="0 0 512 512"><g fill="#19CF86"><path d="M175.292 123.158c55.974-.06 182.935-.04 238.896-.01 9.062-.384 17.49 7.287 17.52 16.427.16 46.41-.01 92.828.08 139.236 24.737.09 49.475-.02 74.212.06-32.91 36.402-66.107 72.548-99.176 108.8-1.52 2.8-3.354.05-4.753-1.34-32.437-35.948-65.466-71.363-97.795-107.4 24.658-.216 49.307 0 73.966-.108.247-34.045.217-68.1.01-102.135-26.64-.108-124.28.01-150.92-.06-17.183-17.974-34.94-35.406-52.038-53.47zM105.197 124.354c1.716-3.026 3.697.483 5.236 1.864 32.34 35.71 65.18 70.98 97.303 106.877-24.708.247-49.416-.06-74.124.148-.098 33.995-.05 67.99-.02 101.986 26.71.236 127.366-.03 154.085.137 17.195 17.935 34.933 35.356 51.95 53.46-56.27 0-186.484.048-242.752-.03-9.13.09-17.017-8.243-16.643-17.323-.05-46.093.03-92.177-.03-138.26-24.736-.1-49.465.04-74.202-.07 32.852-36.45 66.05-72.605 99.197-108.79z"/></g></svg>