<?xml version="1.0" standalone="no"?>
<!DOCTYPE svg PUBLIC "-//W3C//DTD SVG 20010904//EN"
 "http://www.w3.org/TR/2001/REC-SVG-20010904/DTD/svg10.dtd">
<svg version="1.0" xmlns="http://www.w3.org/2000/svg"
 width="900.000000pt" height="900.000000pt" viewBox="0 0 900.000000 900.000000"
 preserveAspectRatio="xMidYMid meet">
<metadata>
Created by potrace 1.10, written by Peter Selinger 2001-2011
</metadata>
<g transform="translate(0.000000,900.000000) scale(0.100000,-0.100000)"
fill="#000000" stroke="none">
<path d="M6254 8991 c3 -5 -44 -60 -105 -122 -136 -139 -420 -436 -636 -664
-89 -93 -200 -210 -247 -259 -73 -76 -89 -98 -102 -145 -9 -31 -22 -76 -30
-101 -8 -25 -14 -58 -14 -75 -1 -16 -7 -39 -15 -49 -8 -11 -15 -34 -15 -50 0
-17 -7 -53 -16 -81 -39 -123 -44 -141 -44 -161 0 -12 -7 -35 -15 -50 -8 -16
-15 -45 -15 -64 -1 -19 -7 -46 -15 -60 -8 -14 -14 -37 -15 -51 0 -15 -6 -31
-12 -36 -8 -6 -157 -13 -358 -17 -463 -8 -896 -24 -1001 -37 -47 -5 -159 -14
-250 -19 -90 -4 -177 -13 -192 -19 -16 -6 -52 -11 -80 -11 -29 0 -79 -7 -112
-15 -33 -8 -75 -14 -93 -15 -18 0 -42 -5 -52 -10 -10 -6 -45 -14 -77 -19 -94
-14 -175 -48 -240 -99 -24 -18 -43 -37 -43 -41 0 -16 53 -61 94 -80 94 -43
108 -48 226 -72 30 -6 77 -17 104 -25 26 -8 71 -14 98 -14 28 0 80 -6 117 -14
75 -17 260 -35 471 -47 80 -5 190 -13 245 -18 132 -12 1232 -12 1360 0 55 6
138 12 185 14 148 7 432 36 508 51 40 8 96 14 125 14 29 1 70 7 92 15 22 8 54
15 72 15 17 0 44 5 60 11 15 6 46 14 68 19 128 26 225 83 225 131 0 32 -96 93
-170 109 -19 5 -48 13 -65 18 -33 12 -109 28 -195 42 -30 5 -73 14 -95 19 -22
6 -60 11 -85 11 -25 0 -65 6 -90 14 -25 7 -121 17 -215 20 -93 4 -187 13 -208
19 l-39 11 7 60 c4 33 14 78 21 100 8 21 14 50 14 65 1 14 7 37 15 51 8 14 14
39 15 55 0 17 6 50 14 75 28 89 46 157 46 177 0 11 7 34 15 49 8 16 15 39 15
51 0 14 40 63 114 140 62 65 135 142 162 171 27 30 66 72 87 95 22 23 87 92
146 152 59 61 154 162 211 225 57 63 118 131 136 150 98 106 125 138 140 166
16 29 16 32 -11 75 -15 24 -35 51 -44 59 -29 26 -80 60 -90 60 -5 0 -13 9 -16
20 -5 16 -15 20 -51 20 -25 0 -43 -4 -40 -9z"/>
<path d="M2505 6540 c-9 -14 6 -281 16 -302 5 -9 13 -84 18 -166 5 -82 14
-158 20 -170 6 -11 11 -56 11 -99 0 -43 5 -107 11 -143 6 -36 14 -112 19 -170
5 -58 14 -130 19 -160 5 -30 10 -87 10 -125 1 -39 8 -97 16 -128 8 -32 15 -90
15 -130 0 -40 6 -117 14 -172 9 -55 20 -143 26 -195 17 -146 22 -170 32 -170
5 0 11 8 14 18 53 167 179 407 292 557 95 125 302 315 344 315 8 0 19 5 26 12
19 19 124 48 177 48 134 0 300 -128 344 -267 12 -35 12 -48 1 -75 -16 -39 -47
-67 -75 -68 -31 0 -89 59 -114 116 -14 33 -98 101 -132 108 -64 12 -188 -52
-269 -141 -45 -48 -140 -169 -140 -177 0 -3 -13 -25 -30 -48 -16 -22 -30 -47
-30 -53 0 -7 -6 -17 -13 -23 -20 -17 -137 -260 -137 -285 0 -7 -5 -18 -11 -24
-6 -6 -15 -29 -19 -50 -5 -21 -13 -51 -19 -68 -25 -71 -41 -177 -41 -266 0
-91 2 -98 30 -137 29 -40 32 -42 84 -42 35 0 58 5 66 15 7 8 18 15 25 15 30 0
204 155 269 239 99 130 156 239 185 356 8 31 12 40 48 110 33 64 108 72 138
15 16 -32 20 -110 6 -126 -5 -5 -11 -27 -14 -49 -2 -22 -10 -56 -17 -75 -7
-19 -18 -51 -25 -70 -7 -19 -18 -51 -24 -70 -7 -19 -16 -48 -21 -65 -8 -29
-18 -59 -41 -127 -6 -18 -14 -46 -17 -63 -2 -16 -11 -39 -18 -50 -8 -11 -14
-29 -14 -40 0 -19 -15 -70 -45 -155 -30 -84 -45 -136 -45 -155 -1 -11 -7 -29
-15 -39 -8 -11 -15 -27 -15 -36 0 -10 -14 -36 -30 -58 -34 -48 -63 -54 -98
-22 -38 36 -28 151 24 278 8 18 14 43 14 55 0 12 6 34 14 49 8 15 16 44 18 65
4 54 -17 52 -82 -8 -80 -74 -179 -147 -220 -164 -8 -4 -28 -14 -45 -23 -22
-13 -55 -17 -130 -17 l-100 0 3 -150 c2 -82 8 -163 13 -180 5 -16 13 -98 18
-182 5 -84 15 -161 20 -172 6 -11 11 -57 12 -103 0 -46 5 -108 10 -138 5 -30
14 -95 19 -145 17 -173 32 -290 40 -311 9 -22 124 -84 158 -84 9 0 26 -7 36
-15 11 -8 31 -15 45 -15 14 -1 37 -7 51 -15 14 -8 36 -14 49 -15 13 0 47 -7
75 -14 109 -32 174 -46 203 -46 17 0 47 -7 66 -15 20 -8 58 -15 84 -15 26 0
77 -8 113 -17 57 -14 139 -16 655 -17 448 0 597 3 620 13 16 7 68 15 115 18
47 3 97 12 112 19 15 8 41 14 58 14 33 0 134 22 210 46 25 8 59 14 76 14 16 0
39 7 50 15 10 8 30 15 43 15 31 0 180 58 205 79 26 23 56 85 56 117 0 15 6 50
14 78 14 48 26 141 47 346 4 47 12 108 18 135 5 28 10 85 10 127 1 42 6 89 12
105 6 15 15 86 20 158 5 71 14 145 19 165 5 19 10 58 10 85 0 28 7 93 15 145
16 107 19 206 6 214 -5 3 -28 -11 -52 -32 -115 -99 -253 -192 -286 -192 -10 0
-28 -7 -39 -15 -49 -37 -188 -5 -225 51 -49 74 -10 150 220 434 33 41 61 80
61 86 0 6 7 17 15 24 23 19 18 49 -9 60 -44 16 -131 -21 -211 -92 -33 -28
-128 -148 -162 -203 -25 -40 -113 -221 -113 -232 0 -6 -7 -16 -15 -23 -8 -7
-15 -20 -15 -29 0 -10 -13 -44 -30 -76 -16 -32 -30 -64 -30 -71 0 -7 -6 -25
-14 -41 -8 -15 -22 -48 -31 -73 -10 -25 -23 -57 -31 -72 -8 -14 -14 -33 -14
-42 0 -36 -85 -207 -121 -244 -42 -43 -63 -47 -103 -23 -57 36 -60 74 -15 182
17 41 36 88 43 104 15 36 33 76 76 170 17 39 38 84 45 100 39 89 58 125 66
131 12 7 11 44 -1 44 -6 0 -16 -5 -23 -10 -42 -36 -148 -108 -177 -122 -82
-37 -112 -48 -140 -48 -41 0 -110 38 -129 72 -14 24 -20 27 -46 22 -16 -3 -37
-11 -45 -18 -27 -20 -126 -61 -177 -73 -55 -13 -123 78 -123 163 0 17 -3 34
-7 37 -4 4 -29 -16 -57 -46 -57 -58 -155 -127 -183 -127 -10 -1 -29 -7 -43
-15 -51 -29 -144 -11 -200 40 -26 23 -43 87 -36 136 14 109 19 135 27 144 4 6
12 29 18 50 12 52 30 103 47 138 8 16 14 35 14 42 0 7 7 26 14 42 8 15 31 62
50 103 47 100 98 160 137 160 57 0 69 -14 69 -79 0 -40 -5 -63 -15 -71 -8 -7
-15 -19 -15 -26 0 -8 -14 -42 -31 -76 -18 -35 -37 -76 -44 -93 -7 -16 -19 -46
-28 -65 -9 -19 -24 -68 -34 -108 -16 -65 -16 -76 -3 -99 26 -45 42 -49 101
-24 78 33 180 139 239 247 11 21 25 46 30 54 8 13 43 88 86 188 57 131 74 152
120 152 37 0 64 -33 64 -77 0 -35 -26 -118 -67 -213 -31 -72 -48 -122 -84
-246 -5 -17 -9 -51 -9 -77 0 -53 15 -63 78 -52 66 11 126 56 155 119 15 31 27
64 27 74 0 9 7 26 15 36 8 11 15 28 15 37 0 10 6 30 14 46 8 15 22 47 30 71
38 102 49 129 62 154 8 14 14 35 14 45 0 10 4 23 9 29 5 5 19 34 31 64 12 30
28 69 35 85 7 17 21 50 30 75 10 25 23 59 30 75 32 76 48 112 61 138 8 16 14
33 14 38 0 10 52 126 76 171 8 14 14 32 14 40 0 8 10 24 23 36 34 32 96 30
127 -3 22 -23 22 -27 11 -67 -14 -45 -34 -101 -57 -155 -28 -65 -55 -130 -88
-205 -8 -18 -22 -53 -31 -78 -10 -25 -24 -61 -33 -80 -8 -19 -22 -51 -30 -70
-8 -19 -21 -48 -28 -63 -8 -16 -14 -36 -14 -46 0 -9 -7 -26 -15 -37 -8 -10
-15 -27 -15 -36 0 -9 -6 -29 -14 -45 -24 -50 -44 -97 -49 -118 -5 -19 -26 -76
-64 -170 -9 -22 -18 -66 -20 -97 l-5 -58 31 0 c45 0 204 111 323 226 64 61
128 167 128 210 0 14 15 47 41 94 5 8 13 25 18 36 11 24 58 64 76 64 7 0 24
-9 39 -21 21 -16 26 -29 26 -64 0 -24 5 -47 10 -50 6 -4 25 5 43 19 107 87
147 116 160 116 8 0 20 7 27 15 9 11 33 15 90 15 57 0 81 -4 90 -15 7 -8 18
-15 25 -15 18 0 44 -33 55 -70 14 -50 -9 -132 -64 -225 -30 -52 -71 -112 -92
-135 -42 -48 -90 -105 -123 -147 -57 -75 -24 -107 54 -54 26 17 50 31 55 31 4
0 10 4 12 8 2 5 28 26 58 47 68 48 165 129 207 175 25 26 33 44 33 71 0 20 7
58 15 85 8 27 15 69 15 94 0 25 5 72 11 105 5 33 14 101 19 150 5 50 14 113
19 140 5 28 10 85 10 128 1 44 7 102 15 130 8 29 17 105 20 170 3 65 11 127
16 137 6 10 10 45 10 78 0 32 7 103 15 158 8 54 15 129 15 166 0 37 5 79 11
95 6 15 15 94 20 174 5 81 13 159 19 174 5 14 10 55 10 91 0 35 7 110 15 166
17 113 13 129 -30 110 -14 -7 -35 -12 -46 -12 -11 0 -30 -6 -42 -12 -26 -15
-110 -36 -187 -47 -30 -5 -71 -14 -90 -20 -19 -6 -59 -11 -88 -11 -29 0 -69
-7 -89 -15 -19 -8 -63 -15 -97 -16 -33 0 -83 -5 -111 -10 -27 -5 -120 -14
-205 -20 -717 -45 -1952 -34 -2219 20 -29 6 -77 11 -105 11 -28 0 -73 7 -100
15 -27 8 -70 15 -95 15 -25 0 -64 5 -86 11 -22 6 -53 13 -70 15 -68 11 -172
37 -197 50 -14 8 -38 14 -51 14 -14 0 -29 5 -32 10 -8 13 -32 13 -40 0z"/>
<path d="M3047 2084 c-8 -9 1 -29 65 -137 32 -54 58 -100 58 -102 0 -2 12 -21
26 -42 14 -21 30 -47 35 -58 5 -11 20 -38 34 -60 21 -34 24 -53 25 -130 0 -49
7 -153 15 -230 8 -77 15 -181 15 -231 0 -50 4 -104 10 -120 5 -16 14 -127 19
-248 6 -130 14 -223 20 -229 7 -7 11 -61 11 -139 0 -90 4 -130 13 -137 6 -6
28 -24 47 -41 19 -17 55 -40 80 -51 25 -11 58 -27 73 -34 16 -8 39 -15 52 -15
13 0 36 -5 52 -11 41 -16 164 -39 278 -51 126 -13 931 -14 1045 -1 106 12 201
30 260 49 25 8 53 14 62 14 43 0 208 93 246 139 8 9 12 49 12 112 0 54 5 110
11 126 6 15 15 152 20 303 5 151 14 297 19 323 6 26 10 101 10 165 1 176 25
439 42 460 8 9 23 35 33 57 11 22 25 47 31 55 6 8 26 42 45 75 18 33 43 78 56
100 34 60 36 64 29 81 -4 10 -13 14 -24 11 -18 -6 -60 -20 -114 -38 -18 -6
-51 -14 -73 -18 -22 -4 -50 -13 -62 -19 -12 -7 -34 -12 -50 -12 -15 0 -50 -7
-77 -15 -27 -8 -66 -15 -86 -15 -21 0 -57 -7 -80 -15 -23 -8 -68 -15 -100 -15
-31 0 -79 -7 -106 -15 -27 -8 -78 -15 -114 -15 -36 0 -114 -7 -175 -15 -146
-20 -558 -20 -720 0 -66 8 -151 15 -188 15 -38 0 -77 5 -88 10 -11 6 -63 15
-117 20 -53 4 -110 13 -125 19 -16 6 -42 11 -59 11 -32 0 -133 22 -208 46 -25
8 -56 14 -70 14 -14 0 -38 7 -54 15 -15 8 -38 15 -50 15 -11 1 -32 7 -46 15
-26 15 -53 19 -63 9z"/>
</g>
</svg>
