<svg version="1" xmlns="http://www.w3.org/2000/svg" width="512" height="512" viewBox="0 0 384.000000 384.000000"><path d="M95 51.5c-3 .7-6.7 1.4-8.1 1.4-1.5.1-4 .8-5.5 1.6-1.6.8-3.7 1.5-4.6 1.5-1 0-5.7 2-10.5 4.5C51.8 68 38.5 80.7 30.1 95c-3.3 5.7-4.8 8.8-8.1 16.5-1.3 3-3 10.3-4.2 17-1.2 7.4-.4 35.3 1.1 36.8.6.6 1.1 1.9 1.1 2.9 0 3.7 8 23.1 11.3 27.3.4.5 2.6 3.5 4.8 6.5 2.2 3 9.5 11.3 16.2 18.5 6.8 7.1 14.7 15.7 17.7 18.9 3 3.3 7.3 7.8 9.5 10.1 8.1 8.4 36.3 38.2 41.5 43.9 3 3.3 6.9 7.3 8.5 9.1 16.7 17.3 38.1 39.9 38.5 40.5 2.3 3.5 21.8 23 23 23 1.2 0 20.7-19.5 23-23 .4-.6 21.8-23.2 38.5-40.5 1.7-1.8 5.5-5.8 8.5-9.1 2.9-3.2 12.6-13.5 21.5-22.8 8.8-9.3 17.1-18.1 18.5-19.6 10-10.7 17.5-18.7 24.5-26 12.6-13.1 19.1-20.7 22.8-26.3 4.1-6.1 9.7-16.6 9.7-17.9 0-.6.6-2.4 1.4-4.1 6.2-14 7.4-40.7 2.6-58.7-2.1-7.9-7.7-19.7-13.6-28.5-3.6-5.6-13.1-15.7-18.2-19.5-1.9-1.4-4-3.1-4.7-3.8-.8-.6-1.8-1.2-2.4-1.2-.5 0-1.6-.6-2.3-1.3-.7-.6-3.5-2.2-6.3-3.5-2.7-1.3-5.8-2.7-6.7-3.3-1-.5-2.3-.9-2.9-.9-.6 0-2.5-.6-4.2-1.4-13.4-5.9-46.1-5.9-59.4 0-1.7.8-3.6 1.4-4.2 1.4-1.7 0-14.2 6.3-20.3 10.3-3.1 2-10 8-15.2 13.2-5.2 5.2-10 9.5-10.6 9.5-.7 0-5.5-4.4-10.9-9.8-8.9-9-20.9-18.2-23.8-18.2-.7 0-1.3-.5-1.3-1 0-.6-.8-1-1.8-1s-2.6-.6-3.7-1.4c-1.1-.7-3.6-1.7-5.5-2.1-1.9-.4-3.9-1-4.5-1.4-4.7-3-35.4-4.8-44.5-2.6z" fill="#e32f2f"/></svg>