<?xml version="1.0" standalone="no"?>
<!DOCTYPE svg PUBLIC "-//W3C//DTD SVG 20010904//EN"
 "http://www.w3.org/TR/2001/REC-SVG-20010904/DTD/svg10.dtd">
<svg version="1.0" xmlns="http://www.w3.org/2000/svg"
 width="900.000000pt" height="900.000000pt" viewBox="0 0 900.000000 900.000000"
 preserveAspectRatio="xMidYMid meet">
<metadata>
Created by potrace 1.10, written by Peter Selinger 2001-2011
</metadata>
<g transform="translate(0.000000,900.000000) scale(0.100000,-0.100000)"
fill="#FFFFFF" stroke="none">
<path d="M1185 7651 c-117 -38 -214 -122 -268 -230 l-32 -66 0 -2875 0 -2875
33 -65 c64 -126 173 -210 307 -236 102 -20 6472 -20 6555 0 87 21 151 56 211
116 57 56 76 87 110 175 19 49 19 111 19 2885 0 2652 -1 2838 -17 2885 -24 69
-76 147 -131 196 -54 47 -83 64 -160 90 -54 18 -143 19 -3316 18 -3000 -1
-3265 -2 -3311 -18z m4731 -301 c55 -25 116 -85 145 -142 18 -34 23 -60 22
-123 0 -97 -22 -146 -94 -207 -89 -78 -182 -96 -281 -57 -104 40 -156 100
-185 212 -15 59 -15 66 2 122 28 92 83 158 165 197 52 25 169 23 226 -2z m799
-1 c107 -47 186 -179 171 -285 -20 -149 -146 -262 -291 -263 -96 0 -204 68
-250 159 -33 66 -36 190 -5 251 28 54 89 113 142 137 61 29 170 29 233 1z
m796 2 c47 -21 112 -85 144 -141 16 -28 20 -53 20 -125 -1 -87 -2 -92 -39
-148 -43 -65 -71 -87 -145 -116 -178 -71 -380 71 -381 267 0 102 66 209 159
257 61 32 177 35 242 6z m166 -856 c7 -5 2 -4750 -5 -4757 -4 -4 -1437 -7
-3183 -6 l-3174 3 0 2380 0 2380 3160 5 c2809 4 3192 4 3202 -5z"/>
<path d="M4650 5424 c-43 -37 -54 -67 -111 -299 -11 -44 -26 -105 -34 -135 -8
-30 -21 -86 -30 -125 -9 -38 -23 -97 -31 -130 -9 -33 -21 -85 -29 -115 -7 -30
-19 -77 -25 -105 -7 -27 -16 -66 -20 -85 -8 -35 -22 -92 -46 -185 -12 -48 -24
-100 -60 -252 -15 -66 -29 -123 -59 -240 -7 -32 -21 -89 -30 -128 -9 -38 -22
-95 -30 -125 -54 -216 -63 -289 -46 -343 18 -55 62 -77 151 -77 73 0 73 0 112
42 21 23 38 48 38 56 0 8 7 35 15 61 13 43 24 84 59 229 8 31 20 80 26 107 7
28 16 66 20 85 8 35 22 92 46 185 7 28 20 82 29 120 15 66 24 101 59 240 8 33
22 92 31 130 20 89 42 176 61 241 8 28 14 59 14 70 0 10 6 39 14 64 17 53 36
129 46 185 7 36 36 155 75 306 43 163 -8 249 -147 249 -57 0 -71 -4 -98 -26z"/>
<path d="M3758 5067 c-64 -29 -120 -55 -124 -59 -4 -5 -13 -8 -21 -8 -7 0 -56
-20 -109 -45 -52 -25 -99 -45 -104 -45 -5 0 -21 -6 -37 -14 -49 -25 -131 -61
-377 -166 -261 -111 -256 -109 -304 -133 -19 -9 -38 -17 -43 -17 -5 0 -40 -14
-77 -31 -37 -18 -82 -38 -99 -46 -18 -7 -47 -20 -65 -28 -18 -7 -41 -16 -50
-19 -16 -5 -18 -23 -18 -199 0 -144 3 -197 13 -204 6 -5 48 -24 92 -42 44 -18
87 -36 96 -41 8 -4 107 -47 220 -95 112 -48 208 -91 214 -96 5 -5 15 -9 22 -9
7 0 43 -14 80 -31 107 -49 136 -61 173 -77 19 -8 42 -18 50 -22 9 -4 140 -60
290 -125 151 -65 281 -122 288 -127 8 -7 17 -7 27 2 12 10 15 46 15 207 0 107
-4 202 -9 212 -6 10 -29 26 -53 35 -24 10 -56 24 -73 32 -25 11 -175 69 -305
119 -19 7 -70 27 -112 44 -43 17 -112 45 -153 61 -41 17 -110 44 -152 61 -43
17 -96 38 -118 46 -68 25 -90 38 -90 53 0 8 9 16 20 18 18 3 57 17 120 43 11
4 45 18 75 29 52 21 79 31 168 64 20 8 73 28 117 46 44 18 96 38 115 45 89 33
198 75 237 91 17 8 36 14 41 14 6 0 23 6 39 14 15 8 47 22 71 32 24 10 47 25
53 35 5 10 9 107 9 217 0 173 -2 201 -16 206 -9 3 -16 6 -17 5 -1 0 -55 -24
-119 -52z"/>
<path d="M5092 4893 l3 -216 85 -34 c47 -19 101 -41 120 -48 19 -7 89 -34 155
-60 66 -25 136 -52 155 -60 51 -19 142 -55 165 -64 28 -12 103 -41 145 -56 19
-7 68 -27 109 -44 40 -17 81 -31 91 -31 29 0 43 -25 25 -44 -9 -9 -23 -16 -30
-16 -8 0 -29 -6 -47 -14 -44 -19 -184 -75 -228 -91 -19 -7 -71 -27 -115 -45
-163 -66 -231 -92 -265 -105 -19 -7 -71 -27 -115 -45 -44 -18 -97 -38 -117
-46 -84 -31 -123 -49 -130 -59 -4 -5 -8 -104 -8 -218 0 -168 3 -209 14 -213 8
-3 45 9 82 26 38 18 83 38 99 44 36 15 104 45 126 56 8 4 107 47 219 95 112
48 211 91 219 95 56 28 152 70 160 70 5 0 24 8 43 17 48 24 48 24 233 103 93
40 176 75 184 80 9 4 32 14 51 23 122 54 148 68 154 83 8 21 8 327 0 348 -6
15 -36 31 -152 81 -18 8 -48 21 -67 30 -19 8 -51 22 -70 30 -19 9 -49 22 -67
30 -18 8 -58 25 -88 38 -30 14 -80 35 -110 47 -30 13 -77 33 -105 45 -27 13
-75 33 -105 45 -30 13 -73 31 -95 41 -148 67 -699 299 -711 299 -12 0 -14 -34
-12 -217z"/>
</g>
</svg>
