<svg version="1" xmlns="http://www.w3.org/2000/svg" width="1200" height="1200" viewBox="0 0 900.000000 900.000000"><path d="M305 138.4c-3 .7-7.3 2.1-9.5 3-2.9 1.3-37.2 34.9-128.6 126.4-103 103-125.1 125.6-127 129.7-1.9 4.3-2.3 6.6-2.3 16s.4 11.7 2.3 16c1.9 4.1 24 26.7 127 129.6C300.7 693 293.4 686.3 306.8 688.9c11.2 2.2 21.7-1 31.3-9.6 13-11.7 15.8-32 6.5-46.8-1.1-1.7-41.8-42.9-90.5-91.7-60.5-60.7-88-88.9-87-89.3.8-.3 87.2-.4 191.9-.2 147.5.2 192.2.6 198 1.6 28.2 4.7 40.3 7.8 62 16 7.6 2.9 31.3 14.2 36.5 17.4 21.9 13.5 35.4 23.7 50.4 38.2 15.8 15.2 35.8 40.3 43.1 54 .6 1.1 1.9 3.3 2.9 5 3.5 5.4 13.2 25.7 16.6 34.5 1.6 4.2 2.3 6.2 5.5 15 .6 1.9 1.5 5.1 1.9 7 .4 1.9 1.3 5.1 1.8 7 1.7 5.4 3.2 12.4 5.5 25 1.6 9.4 2.2 18.3 2.8 48.5.5 20.3 1.3 38.7 1.8 40.7 2.3 8.7 10.3 18.3 19.5 23.4 4.9 2.7 5.9 2.9 16.4 2.9 10.4 0 11.5-.2 16.7-2.9 11.4-6 18.7-16.3 20.6-29.3 1.9-13.7.4-65.5-2.5-86.8-4.8-34.1-13.9-65.7-27.2-94.5-5.9-12.7-7.7-16.3-11.9-23.5-2.2-3.9-4.4-7.7-4.8-8.5-2.8-5.9-24.4-37.1-27.5-40-.4-.3-3.8-4.3-7.7-9-18.3-21.7-52.2-51-74.8-64.6-2.7-1.6-6-3.7-7.5-4.6-10.5-6.8-36.8-19.6-52.6-25.5-2.2-.8-5.1-2-6.5-2.5-3.2-1.2-12-4.1-19.5-6.3-3.3-1-8-2.4-10.4-3.1-2.5-.8-5.3-1.4-6.4-1.4-1.1 0-4.3-.6-7.1-1.4-5.1-1.5-16.4-3.4-33.1-5.8-7-1-52.5-1.3-201.7-1.5-150.4-.3-192.8-.6-192.8-1.6 0-.6 39.8-41 88.4-89.7 98.9-99.1 93.6-93 94.4-108.2.6-12.1-3.8-22.3-13-30.3-5.6-4.7-9.1-6.5-16.3-8.1-7.2-1.6-8.4-1.6-15.5 0z" fill="#b6a06d"/></svg>