<?xml version="1.0" standalone="no"?>
<!DOCTYPE svg PUBLIC "-//W3C//DTD SVG 20010904//EN"
 "http://www.w3.org/TR/2001/REC-SVG-20010904/DTD/svg10.dtd">
<svg version="1.0" xmlns="http://www.w3.org/2000/svg"
 width="384.000000pt" height="384.000000pt" viewBox="0 0 384.000000 384.000000"
 preserveAspectRatio="xMidYMid meet">
<metadata>
Created by potrace 1.10, written by Peter Selinger 2001-2011
</metadata>
<g transform="translate(0.000000,384.000000) scale(0.100000,-0.100000)"
fill="#e32f2f" stroke="none">
<path d="M950 3325 c-30 -7 -67 -14 -81 -14 -15 -1 -40 -8 -55 -16 -16 -8 -37
-15 -46 -15 -10 0 -57 -20 -105 -45 -145 -75 -278 -202 -362 -345 -33 -57 -48
-88 -81 -165 -13 -30 -30 -103 -42 -170 -12 -74 -4 -353 11 -368 6 -6 11 -19
11 -29 0 -37 80 -231 113 -273 4 -5 26 -35 48 -65 22 -30 95 -113 162 -185 68
-71 147 -157 177 -189 30 -33 73 -78 95 -101 81 -84 363 -382 415 -439 30 -33
69 -73 85 -91 167 -173 381 -399 385 -405 23 -35 218 -230 230 -230 12 0 207
195 230 230 4 6 218 232 385 405 17 18 55 58 85 91 29 32 126 135 215 228 88
93 171 181 185 196 100 107 175 187 245 260 126 131 191 207 228 263 41 61 97
166 97 179 0 6 6 24 14 41 62 140 74 407 26 587 -21 79 -77 197 -136 285 -36
56 -131 157 -182 195 -19 14 -40 31 -47 38 -8 6 -18 12 -24 12 -5 0 -16 6 -23
13 -7 6 -35 22 -63 35 -27 13 -58 27 -67 33 -10 5 -23 9 -29 9 -6 0 -25 6 -42
14 -134 59 -461 59 -594 0 -17 -8 -36 -14 -42 -14 -17 0 -142 -63 -203 -103
-31 -20 -100 -80 -152 -132 -52 -52 -100 -95 -106 -95 -7 0 -55 44 -109 98
-89 90 -209 182 -238 182 -7 0 -13 5 -13 10 0 6 -8 10 -18 10 -10 0 -26 6 -37
14 -11 7 -36 17 -55 21 -19 4 -39 10 -45 14 -47 30 -354 48 -445 26z"/>
</g>
</svg>
