<?xml version="1.0" standalone="no"?>
<!DOCTYPE svg PUBLIC "-//W3C//DTD SVG 20010904//EN"
 "http://www.w3.org/TR/2001/REC-SVG-20010904/DTD/svg10.dtd">
<svg version="1.0" xmlns="http://www.w3.org/2000/svg"
 width="900.000000pt" height="900.000000pt" viewBox="0 0 900.000000 900.000000"
 preserveAspectRatio="xMidYMid meet">
<metadata>
Created by potrace 1.10, written by Peter Selinger 2001-2011
</metadata>
<g transform="translate(0.000000,900.000000) scale(0.100000,-0.100000)"
fill="#b6a06d" stroke="none">
<path d="M3050 7616 c-30 -7 -73 -21 -95 -30 -29 -13 -372 -349 -1286 -1264
-1030 -1030 -1251 -1256 -1270 -1297 -19 -43 -23 -66 -23 -160 0 -94 4 -117
23 -160 19 -41 240 -267 1270 -1296 1338 -1339 1265 -1272 1399 -1298 112 -22
217 10 313 96 130 117 158 320 65 468 -11 17 -418 429 -905 917 -605 607 -880
889 -870 893 8 3 872 4 1919 2 1475 -2 1922 -6 1980 -16 282 -47 403 -78 620
-160 76 -29 313 -142 365 -174 219 -135 354 -237 504 -382 158 -152 358 -403
431 -540 6 -11 19 -33 29 -50 35 -54 132 -257 166 -345 16 -42 23 -62 55 -150
6 -19 15 -51 19 -70 4 -19 13 -51 18 -70 17 -54 32 -124 55 -250 16 -94 22
-183 28 -485 5 -203 13 -387 18 -407 23 -87 103 -183 195 -234 49 -27 59 -29
164 -29 104 0 115 2 167 29 114 60 187 163 206 293 19 137 4 655 -25 868 -48
341 -139 657 -272 945 -59 127 -77 163 -119 235 -22 39 -44 77 -48 85 -28 59
-244 371 -275 400 -4 3 -38 43 -77 90 -183 217 -522 510 -748 646 -27 16 -60
37 -75 46 -105 68 -368 196 -526 255 -22 8 -51 20 -65 25 -32 12 -120 41 -195
63 -33 10 -80 24 -104 31 -25 8 -53 14 -64 14 -11 0 -43 6 -71 14 -51 15 -164
34 -331 58 -70 10 -525 13 -2017 15 -1504 3 -1928 6 -1928 16 0 6 398 410 884
897 989 991 936 930 944 1082 6 121 -38 223 -130 303 -56 47 -91 65 -163 81
-72 16 -84 16 -155 0z"/>
</g>
</svg>
